Patient5_TMGait_0pt45_1_right_08_EMG.mot
version=1
nRows=29
nColumns=33
inDegrees=no
endheader
time	1LAddLong	2LGlutMax	3LGlutMed	4LIliopsoas	5LSemiMemb	6LBicFemLong	7LRecFem	8LTensFascLat	9LVastMed	10LVasLat	11LGasMed	12lGasLat	13LTibAnt	14LPeroneusLong	15LSol	16LTibPost	17RAddLong	18RGlutMax	19RGlutMed	20RIliopsoas	21RSemiMemb	22RBicFemLong	23RRecFem	24RTensFascLat	25RVastMed	26RVasLat	27RGasMed	28RGasLat	29RTibAnt	30RPeroneusLong	31RSol	32RTibPost
13.46	0.014801	-0.004425	0.014801	-0.002136	0.060577	-0.020599	-0.002289	-0.10544	0.011139	0.00824	-0.009003	0.018311	0.050049	0.014191	0.015717	0.040588	0.002747	-0.031891	-0.55222	0.11948	0.040283	-0.29495	0.028992	0.13412	0.002747	-0.023041	-0.026855	0.07843	-0.019379	-0.004883	-0.041809	-0.019836
13.461	-0.063171	0.006104	0.027618	0.022583	0.066528	-0.029602	0.00061	-0.11017	0.015717	0.008545	-0.004578	0.002747	0.010376	0	0.025177	-0.083618	0.00412	-0.029297	-0.51712	0.13306	0.084381	-0.26138	0.007629	0.12848	0.036469	-0.11597	0.001984	0.063934	-0.026855	-0.008545	-0.037537	-0.088806
13.462	-0.054016	0.005493	0.016479	0.0177	0.052643	-0.036774	0.007935	-0.13962	0.012512	-0.005646	-0.001068	-0.001984	-0.003204	-0.006866	0.02655	0.029907	0.005493	-0.024719	0.19211	-0.20721	-0.041046	-0.053406	-0.005341	0.002289	0.028381	-0.10605	0.012207	0.002899	-0.021973	-0.00824	-0.03006	-0.018463
13.463	-0.021515	0.011749	0.007019	0.026855	0.053406	-0.027313	0.003204	-0.16296	0.008392	0.003815	-0.002899	0.001678	-0.014343	-0.013733	0.031433	0.097809	0.004425	-0.021667	0.53223	0.070496	-0.084839	0.35568	-0.022583	-0.026093	0.026703	0.023041	0.052948	0.11185	-0.02655	-0.001678	-0.023193	-0.19531
13.464	-0.019379	0.00412	-0.009308	0.00412	0.049591	-0.02121	0.007782	-0.18509	0.007782	0.003967	0.002136	0.00824	-0.047913	0.010834	0.02243	-0.040283	-0.014648	-0.011139	0.60425	0.024567	-0.047607	0.44418	-0.009613	-0.060883	0.054016	0.15289	0.058899	0.19043	-0.023193	0.006104	-0.007324	0.20859
13.465	0.008698	0.002289	-0.02182	-0.023041	0.041962	-0.018158	-0.003204	-0.20676	0.005341	0.001068	-0.004883	0.016937	-0.053558	0.019989	0.00885	0.079956	-0.007782	0.007629	0.81802	0.065613	-0.16312	0.20309	-0.013123	-0.16586	0.072937	0.24796	0.030823	0.12878	-0.01709	-0.001984	-0.032043	-0.041656
13.466	0.091858	0.002747	-0.032959	-0.051117	0.028992	-0.03067	-0.007324	-0.21103	-0.001068	0.008087	-0.002136	0.018311	-0.038757	0.026093	0.007935	0.09491	-0.00824	0.002594	0.78613	0.18616	-0.17334	0.17777	-0.010529	-0.16037	0.089417	0.20203	0.002289	0.062256	-0.015869	-0.013733	-0.0383	0.00351
13.467	0.069122	0.00473	-0.014343	-0.028076	0.033875	-0.028076	0.00473	-0.19333	0.000153	0.010376	-0.013733	0.02121	-0.061493	0.033112	0.013275	0.006714	-0.004425	0.003662	0.39246	-0.11414	-0.01297	0.242	-0.014954	-0.11139	0.10651	0.014954	0.030365	0.12863	-0.002594	-0.016785	-0.022888	-0.068817
13.468	-0.001984	0.009308	-0.009003	-0.053406	0.01709	-0.037689	-0.00473	-0.17075	0.008392	0.01358	-0.017395	0.026855	-0.097046	0.036621	0.005493	-0.11322	-0.013275	0.009308	-0.11887	0.21912	0.12924	0.23438	-0.012054	-0.076141	0.11063	-0.1593	0.041504	0.023346	-0.000153	-0.018616	0.006714	-0.057831
13.469	-0.034027	0.006561	-0.01236	0.079346	0.02533	-0.02594	0.003967	-0.15259	0.013733	0.007629	-0.02121	0.028534	-0.12695	0.036316	-0.002136	-0.041046	-0.019226	0.009308	-0.42847	0.045319	0.14801	0.18997	-0.003967	-0.069427	0.07431	-0.14725	0.000153	-0.14008	0.000763	-0.020905	0.034485	-0.00824
13.47	-0.066528	0.002899	-0.026093	0.04364	0.028381	-0.028687	-0.006409	-0.11826	0.011292	0.003815	-0.02121	0.018158	-0.06958	0.031586	-0.006714	-0.12283	-0.019836	0.00885	-0.13397	0.060272	-0.008698	0.18463	-0.001373	-0.1297	0.056763	-0.085602	-0.050812	-0.22629	-0.00351	-0.018005	0.054169	-0.082855
13.471	-0.091248	-0.000153	-0.034027	0.033264	0.02243	-0.040131	-0.009308	-0.085297	0.023346	-0.000305	-0.008087	0.007172	-0.080566	0.018768	0.003815	-0.066376	-0.02533	-0.000305	-0.1091	0.084229	-0.177	0.12695	-0.01709	-0.034943	0.049438	-0.10895	-0.039215	-0.14923	-0.014191	-0.021973	0.067902	-0.040131
13.472	-0.32349	0.001373	-0.031738	0.022888	0.038147	-0.041656	0.002594	-0.087128	0.014038	0	-0.003052	0.001526	-0.084839	0.007477	0.011139	0.016327	-0.018768	-0.013733	-0.16449	0.093536	-0.15717	0.18204	-0.02243	-0.010529	0.052948	-0.13733	-0.026398	-0.089722	-0.020599	-0.012817	0.053406	0.021057
13.473	-0.23468	0.003204	-0.011292	-0.003357	0.010681	-0.03891	0.019379	-0.084839	0.018311	0.002441	0.001678	-0.005646	-0.042725	0.007172	0.024719	-0.011139	-0.024414	-0.019073	-0.17716	-0.016479	-0.092621	0.18799	-0.005188	0.056152	0.030518	-0.069122	0.006866	-0.055389	-0.017395	-0.011749	0.042419	0.018463
13.474	-0.13611	0.00351	0.003967	-0.019989	0.006409	-0.040131	0.020142	-0.10452	0.018921	0.005646	0.002441	-0.00351	0.046692	0.016174	0.031128	-0.024719	-0.016022	-0.035858	-0.26443	-0.06485	-0.02655	0.081787	-0.001068	0.063934	0.019684	-0.030518	-0.008087	-0.038757	-0.009918	-0.0177	0.018463	0.027313
13.475	-0.070038	0.003967	-0.007324	0.08255	0.000458	-0.0383	0.02533	-0.087128	0.020142	0.005646	0.018005	-0.007172	0.064087	0.007324	0.021515	-0.026855	-0.030518	-0.040283	-0.27679	0.14557	-0.041962	0.034027	-0.001221	0.086823	-0.002747	-0.067749	-0.016479	-0.044403	-0.000916	-0.019836	0.007172	0.027924
13.476	0.010986	0.001678	-0.005035	-0.099945	0.009003	-0.029602	0.01709	-0.093842	0.019379	0.008087	0.007782	-0.00061	0.11108	0.004272	0.011749	0.050964	-0.019684	-0.039673	-0.41794	0.009308	-0.11108	-0.003357	-0.006256	0.096741	-0.081482	-0.044861	0.000458	-0.03952	-0.002899	-0.027924	0.02594	0.035706
13.477	0.066071	-0.001373	-0.007782	-0.017548	0.01236	-0.027771	0.019226	-0.070801	0.016479	0.002594	-0.004883	0.003052	0.022278	0.023651	-0.01236	-0.050354	-0.017242	-0.025787	-0.41397	-0.091095	-0.13031	-0.025787	-0.010834	0.028534	-0.1152	0.033112	0.009155	-0.045319	-0.00824	-0.017548	0.031586	0.017853
13.478	0.09491	-0.000763	-0.005951	0.015259	0.015106	-0.026398	0.016937	-0.056763	0.024414	-0.001526	-0.00351	0.013428	-0.02533	0.031891	-0.021667	0.062256	-0.001831	-0.021515	-0.21576	-0.082855	-0.079041	-0.13306	-0.004578	0.001984	-0.13886	0.037842	-0.012512	-0.029297	-0.001526	-0.019836	0.019073	0.023956
13.479	0.11551	0.001984	0.003052	0.010834	0.011139	-0.031586	0.0177	-0.045013	0.029297	-0.001221	0	0.010681	0.006714	0.020294	-0.017242	0.052338	-0.003967	-0.019836	-0.099335	-0.29724	-0.061798	-0.19043	-0.014191	0.21439	-0.088806	-0.067749	-0.021973	-0.020142	-0.009613	-0.012512	0.016022	0.018463
13.48	0.12436	0.000305	0.002441	0.015411	0.009003	-0.031128	0.002289	-0.015717	0.033569	-0.000305	-0.014191	0.00885	0.026245	0.019989	-0.005646	-0.024567	-0.013885	-0.018768	0.056915	-0.22583	-0.054169	-0.17242	-0.022736	0.29495	-0.070953	-0.16464	-0.00351	-0.027771	-0.008698	-0.015564	-0.004425	0.011292
13.481	0.095215	0.007324	0.010071	0.021057	-0.001678	-0.028381	-0.025635	-0.001373	0.027161	-0.000916	-0.01709	0.012665	0.028381	0.007172	0.002899	0.05249	-0.022278	0.001678	0.09903	-0.020447	-0.050201	-0.16113	-0.016785	0.1767	-0.11673	-0.17242	0.00473	-0.028992	-0.008392	-0.013885	-0.010986	0.005341
13.482	0.067749	0.001831	0.003204	0.023499	0.010223	-0.025024	-0.019989	0.0383	0.026398	0.001373	-0.010529	0.010223	0.02594	0.011292	0.002441	0.050964	-0.012512	0.008392	0.14175	-0.08255	-0.001984	-0.092926	-0.014038	0.10803	-0.16693	-0.1532	-0.005035	-0.019073	-0.009918	-0.016479	-0.00351	0.006714
13.483	0.039825	0.003204	0.00885	0.012512	0.010529	-0.026245	-0.019989	0.091705	0.022125	-0.000763	-0.011292	0.007935	-0.026703	0.011139	0.005035	0.037537	-0.017853	0.020599	0.001221	0.076447	0.022278	-0.07431	-0.011139	0.026855	-0.18692	0.029297	-0.001678	-0.013428	-0.012054	-0.0177	0.009918	0.002899
13.484	0.084534	-0.000916	0.013275	-0.015869	0.014801	-0.022736	-0.029297	0.1416	0.012665	-0.000305	-0.003204	0.008698	-0.087891	0.002441	0.005798	-0.29831	-0.01358	0.032043	-0.12527	-0.016327	0.13199	-0.078583	-0.016785	-0.034332	-0.20721	0.071106	0.006714	-0.006104	-0.00885	-0.020752	0.020599	0.007935
13.485	0.10834	0.003662	0.006561	-0.013123	0.011749	-0.020142	-0.019226	0.1506	0.015564	-0.001678	-0.002747	0.00946	-0.1178	0.006104	0.013428	-0.1004	-0.01236	0.041046	-0.26611	-0.14236	0.19211	-0.13916	-0.020905	0.021973	-0.24551	0.068207	0.010071	-0.012207	-0.007782	-0.018921	0.032501	0.013733
13.486	0.13321	-0.001068	0.003815	-0.005188	-0.00412	-0.024109	-0.020142	0.18021	0.012665	-0.000458	-0.001984	0.005341	-0.11108	0.006561	0.012817	0.12451	-0.00885	0.035706	-0.25253	-0.23789	0.16418	-0.18662	-0.024261	0.082703	-0.19043	0.1329	0.010223	0.000763	-0.008392	-0.015411	0.019226	0.01297
13.487	0.1004	0.001373	0.005341	-0.007172	0.016479	-0.02533	-0.008087	0.20844	0.018616	-0.001221	-0.001221	0.010529	-0.10086	0.000916	0.014343	0.090179	-0.004578	0.033569	-0.2153	0.098877	-0.021057	-0.17242	-0.022278	0.14008	-0.10254	0.12573	0.008545	0.001526	-0.012665	-0.020294	0.016479	0.036469
13.488	0.12482	-0.00351	0.003815	-0.00412	0.016174	-0.023499	-0.000916	0.20844	0.012512	-0.004578	0.001068	0.011139	-0.094452	0.000763	0.011749	0.068817	-0.011444	0.029602	0.002899	-0.25101	-0.16586	-0.15274	-0.02182	0.036163	-0.036011	0.079956	-0.056458	-0.005188	-0.007629	-0.021057	0.014191	0.006409
